<svg id="Layer_1" data-name="Layer 1" xmlns="http://www.w3.org/2000/svg" viewBox="0 0 894.29 223.02"><defs><style>.cls-1{fill:#ef3e33;}</style></defs><title>espn-seeklogo</title><path class="cls-1" d="M401.34,609.41c-17,0-47,19.41-47,63H796.15c6-64.71-39.59-63-39.59-63Zm-50.82,86s0,13.41,0,20.43c0,13.84,13.84,30.66,34.91,30.66,13.2,0,107.06.09,107.06.09L489,772.87H344.09l-7.68,59.57H506.27c14.26,0,47.54-11.53,53.21-45.48,0,0,6.64-55.85,6.8-57.94.86-10.85-5.76-33.62-35.23-33.62Zm231.09,0h212l-4.68,23.84s-4.68,27.25-37.46,27.25H647.59l-9.79,86H565.86l15.75-137Zm223-23h217.51c9.8-42.15-10.63-63-31.93-63H812.75l-8.09,63Zm53.63,160H786.36l15.75-137h72.78l-16.6,137Zm144.73,0H931.08l15.75-137h72.79l-16.6,137Zm-856.44-137H341.11l-6.39,51.09H215.11l-3.83,26.38h120l-7.24,59.57H130.4l16.18-137Zm9.79-86H350.9l-8.3,63h-193l6.81-63Z" transform="translate(-130.4 -609.41)"/></svg>